<svg xmlns="http://www.w3.org/2000/svg" width="512" height="512" viewBox="0 0 512 512" fill="none">
  <!-- Outer glow effect -->
  <filter id="glow" x="-50%" y="-50%" width="200%" height="200%">
    <feGaussianBlur stdDeviation="15" result="blur" />
    <feComposite in="SourceGraphic" in2="blur" operator="over" />
  </filter>
  
  <!-- Gradient for the moon -->
  <linearGradient id="moonGradient" x1="0%" y1="0%" x2="100%" y2="100%">
    <stop offset="0%" stop-color="#FFFFFF" />
    <stop offset="100%" stop-color="#E1E1E6" />
  </linearGradient>
  
  <!-- Gradient for the crescent shadow -->
  <linearGradient id="crescentGradient" x1="70%" y1="30%" x2="30%" y2="70%">
    <stop offset="0%" stop-color="rgba(0,0,0,0.1)" />
    <stop offset="100%" stop-color="rgba(0,0,0,0.3)" />
  </linearGradient>
  
  <!-- Text gradient -->
  <linearGradient id="textGradient" x1="0%" y1="0%" x2="100%" y2="0%">
    <stop offset="0%" stop-color="#FFFFFF" />
    <stop offset="100%" stop-color="#E1E1E6" />
  </linearGradient>
  
  <!-- Stars background -->
  <g id="stars">
    <circle cx="100" cy="80" r="2" fill="white" opacity="0.8" />
    <circle cx="150" cy="50" r="1.5" fill="white" opacity="0.7" />
    <circle cx="200" cy="90" r="2" fill="white" opacity="0.9" />
    <circle cx="250" cy="60" r="1" fill="white" opacity="0.6" />
    <circle cx="300" cy="100" r="1.5" fill="white" opacity="0.8" />
    <circle cx="350" cy="70" r="2" fill="white" opacity="0.7" />
    <circle cx="400" cy="110" r="1" fill="white" opacity="0.9" />
    <circle cx="120" cy="150" r="1.5" fill="white" opacity="0.6" />
    <circle cx="170" cy="120" r="1" fill="white" opacity="0.8" />
    <circle cx="220" cy="160" r="2" fill="white" opacity="0.7" />
    <circle cx="270" cy="130" r="1.5" fill="white" opacity="0.9" />
    <circle cx="320" cy="170" r="1" fill="white" opacity="0.6" />
    <circle cx="370" cy="140" r="2" fill="white" opacity="0.8" />
    <circle cx="420" cy="180" r="1.5" fill="white" opacity="0.7" />
  </g>
  
  <!-- Main moon circle -->
  <circle cx="256" cy="220" r="120" fill="url(#moonGradient)" filter="url(#glow)" />
  
  <!-- Crescent shadow effect -->
  <path d="M256 100C202.3 100 156.8 133.1 136.7 180.3C146.8 145.6 179.4 120 218 120C270.5 120 313 162.5 313 215C313 253.6 287.4 286.2 252.7 296.3C299.9 276.2 333 230.7 333 177C333 133.4 300.6 100 256 100Z" fill="url(#crescentGradient)" />
  
  <!-- Moon craters -->
  <circle cx="210" cy="184" r="15" fill="rgba(0,0,0,0.1)" />
  <circle cx="280" cy="254" r="20" fill="rgba(0,0,0,0.1)" />
  <circle cx="240" cy="144" r="10" fill="rgba(0,0,0,0.1)" />
  <circle cx="300" cy="194" r="12" fill="rgba(0,0,0,0.1)" />
  <circle cx="190" cy="244" r="18" fill="rgba(0,0,0,0.1)" />
  
  <!-- Text with gradient -->
  <text x="256" y="400" text-anchor="middle" font-family="Arial, sans-serif" font-size="48" font-weight="bold" fill="url(#textGradient)" filter="url(#glow)">Aetherial</text>
</svg> 