<svg xmlns="http://www.w3.org/2000/svg" width="512" height="512" viewBox="0 0 512 512" fill="none">
  <!-- Outer glow effect -->
  <filter id="glow" x="-50%" y="-50%" width="200%" height="200%">
    <feGaussianBlur stdDeviation="10" result="blur" />
    <feComposite in="SourceGraphic" in2="blur" operator="over" />
  </filter>
  
  <!-- Gradient for the moon -->
  <linearGradient id="moonGradient" x1="0%" y1="0%" x2="100%" y2="100%">
    <stop offset="0%" stop-color="#FFFFFF" />
    <stop offset="100%" stop-color="#E1E1E6" />
  </linearGradient>
  
  <!-- Gradient for the crescent shadow -->
  <linearGradient id="crescentGradient" x1="70%" y1="30%" x2="30%" y2="70%">
    <stop offset="0%" stop-color="rgba(0,0,0,0.1)" />
    <stop offset="100%" stop-color="rgba(0,0,0,0.3)" />
  </linearGradient>
  
  <!-- Background circle (for favicon) -->
  <circle cx="256" cy="256" r="256" fill="#000000" />
  
  <!-- Stars background -->
  <g id="stars">
    <circle cx="100" cy="100" r="2" fill="white" opacity="0.8" />
    <circle cx="150" cy="80" r="1.5" fill="white" opacity="0.7" />
    <circle cx="200" cy="120" r="2" fill="white" opacity="0.9" />
    <circle cx="300" cy="100" r="1.5" fill="white" opacity="0.8" />
    <circle cx="350" cy="80" r="2" fill="white" opacity="0.7" />
    <circle cx="400" cy="120" r="1" fill="white" opacity="0.9" />
    <circle cx="120" cy="350" r="1.5" fill="white" opacity="0.6" />
    <circle cx="170" cy="400" r="1" fill="white" opacity="0.8" />
    <circle cx="370" cy="350" r="2" fill="white" opacity="0.8" />
    <circle cx="420" cy="400" r="1.5" fill="white" opacity="0.7" />
  </g>
  
  <!-- Main moon circle -->
  <circle cx="256" cy="256" r="150" fill="url(#moonGradient)" filter="url(#glow)" />
  
  <!-- Crescent shadow effect -->
  <path d="M256 106C187.3 106 129.8 147.1 104.7 206.3C117.8 162.6 158.4 130 206 130C271.5 130 325 183.5 325 249C325 296.6 292.4 337.2 248.7 350.3C307.9 325.2 349 267.7 349 199C349 145.4 308.6 106 256 106Z" fill="url(#crescentGradient)" />
  
  <!-- Moon craters -->
  <circle cx="200" cy="220" r="20" fill="rgba(0,0,0,0.1)" />
  <circle cx="290" cy="300" r="25" fill="rgba(0,0,0,0.1)" />
  <circle cx="240" cy="180" r="15" fill="rgba(0,0,0,0.1)" />
  <circle cx="310" cy="230" r="18" fill="rgba(0,0,0,0.1)" />
  <circle cx="180" cy="290" r="22" fill="rgba(0,0,0,0.1)" />
</svg> 